<svg xmlns="http://www.w3.org/2000/svg" viewBox="0 0 309.24 309.24"><defs><style>.cls-1{fill:#231f20;}.cls-2{fill:#fff;}</style></defs><g id="Layer_2" data-name="Layer 2"><g id="Layer_1-2" data-name="Layer 1"><path class="cls-1" d="M216.12,135.23H136.54v15.66h31.4v49.18h48.18c23.08,0,39.74-12.85,39.74-32.12C255.86,149.08,238.6,135.23,216.12,135.23Zm0,0H136.54v15.66h31.4v49.18h48.18c23.08,0,39.74-12.85,39.74-32.12C255.86,149.08,238.6,135.23,216.12,135.23ZM291.59,1.66H17.64a16,16,0,0,0-16,16v274a16,16,0,0,0,16,16h274a16,16,0,0,0,16-16V17.64A16,16,0,0,0,291.59,1.66ZM216.12,234.6H136.54v4.79H118.17V172.76H37v66.63H18.62V93.28H37v64.09h81.17V93.28h18.37v28.29l16.14-21.27h63.44c47,0,80.9,27.1,80.9,65.84C297,205.09,262.69,234.6,216.12,234.6Zm0-99.37H136.54v15.66h31.4v49.18h48.18c23.08,0,39.74-12.85,39.74-32.12C255.86,149.08,238.6,135.23,216.12,135.23Z"/><path class="cls-2" d="M291.59,0H17.64A17.66,17.66,0,0,0,0,17.64v274a17.66,17.66,0,0,0,17.64,17.65h274a17.67,17.67,0,0,0,17.65-17.65V17.64A17.66,17.66,0,0,0,291.59,0Zm14.32,291.59a14.33,14.33,0,0,1-14.32,14.32H17.64A14.34,14.34,0,0,1,3.32,291.59V17.64A14.34,14.34,0,0,1,17.64,3.32h274a14.34,14.34,0,0,1,14.32,14.32Z"/><path class="cls-2" d="M216.12,100.3H152.68l-16.14,21.27V93.28H118.17v64.09H37V93.28H18.62V239.39H37V172.76h81.17v66.63h18.37V234.6h79.58c46.57,0,80.9-29.51,80.9-68.46C297,127.4,263.09,100.3,216.12,100.3Zm0,99.77H167.94V150.89h-31.4V135.23h79.58c22.48,0,39.74,13.85,39.74,32.72C255.86,187.22,239.2,200.07,216.12,200.07Z"/></g></g></svg>