<?xml version="1.0" standalone="no"?>
<!DOCTYPE svg PUBLIC "-//W3C//DTD SVG 20010904//EN"
 "http://www.w3.org/TR/2001/REC-SVG-20010904/DTD/svg10.dtd">
<svg version="1.0" xmlns="http://www.w3.org/2000/svg"
 width="50.000000pt" height="50.000000pt" viewBox="0 0 50.000000 50.000000"
 preserveAspectRatio="xMidYMid meet">

<g transform="translate(0.000000,50.000000) scale(0.100000,-0.100000)"
fill="#000000" stroke="none">
<path d="M60 441 c0 -14 -6 -21 -20 -21 -19 0 -20 -7 -20 -174 l0 -173 68 -7
c37 -3 88 -13 114 -21 42 -12 54 -12 95 0 27 8 78 18 116 21 l67 7 0 173 c0
167 -1 174 -20 174 -14 0 -20 7 -20 21 0 20 -4 21 -53 15 -30 -3 -73 -12 -95
-20 -37 -13 -47 -13 -84 0 -22 8 -65 17 -95 20 -49 6 -53 5 -53 -15z m143 -23
l37 -11 0 -155 0 -154 -22 6 c-13 4 -49 12 -80 18 l-58 12 0 154 0 155 43 -7
c23 -4 59 -12 80 -18z m217 -131 l0 -153 -57 -12 c-32 -6 -68 -14 -80 -18
l-23 -6 0 156 c0 86 3 156 8 156 4 1 30 7 57 15 101 28 95 37 95 -138z"/>
</g>
</svg>
