<svg xmlns="http://www.w3.org/2000/svg" fill="none" viewBox="0 0 309.24 309.24"><path fill="#B0B0B0" class="cls-1" d="M291.59,1.66H17.64a16,16,0,0,0-16,16v274a16,16,0,0,0,16,16h274a16,16,0,0,0,16-16V17.64A16,16,0,0,0,291.59,1.66Zm14.32,289.93a14.33,14.33,0,0,1-14.32,14.32H17.64A14.34,14.34,0,0,1,3.32,291.59V17.64A14.34,14.34,0,0,1,17.64,3.32h274a14.34,14.34,0,0,1,14.32,14.32Z"/><path fill="#B0B0B0" class="cls-2" d="M291.59,0H17.64A17.66,17.66,0,0,0,0,17.64v274a17.66,17.66,0,0,0,17.64,17.65h274a17.67,17.67,0,0,0,17.65-17.65V17.64A17.66,17.66,0,0,0,291.59,0Zm14.32,291.59a14.33,14.33,0,0,1-14.32,14.32H17.64A14.34,14.34,0,0,1,3.32,291.59V17.64A14.34,14.34,0,0,1,17.64,3.32h274a14.34,14.34,0,0,1,14.32,14.32Z"/><path fill="#B0B0B0" class="cls-2" d="M216.12,100.3H152.68l-16.14,21.27V93.28H118.17v64.09H37V93.28H18.62V239.39H37V172.76h81.17v66.63h18.37V234.6h79.58c46.57,0,80.9-29.51,80.9-68.46C297,127.4,263.09,100.3,216.12,100.3Zm0,99.77H167.94V150.89h-31.4V135.23h79.58c22.48,0,39.74,13.85,39.74,32.72C255.86,187.22,239.2,200.07,216.12,200.07Z"/></svg>
