<?xml version="1.0" encoding="utf-8"?>
<!-- Generator: Adobe Illustrator 24.3.0, SVG Export Plug-In . SVG Version: 6.00 Build 0)  -->
<svg version="1.1" id="Layer_1" xmlns="http://www.w3.org/2000/svg" xmlns:xlink="http://www.w3.org/1999/xlink" x="0px" y="0px"
	 viewBox="0 0 71 55" style="enable-background:new 0 0 71 55;" xml:space="preserve">
<style type="text/css">
	.st0{fill:#E2761B;stroke:#E2761B;stroke-width:0.2327;stroke-linecap:round;stroke-linejoin:round;}
	.st1{fill:#E4761B;stroke:#E4761B;stroke-width:0.2327;stroke-linecap:round;stroke-linejoin:round;}
	.st2{fill:#D7C1B3;stroke:#D7C1B3;stroke-width:0.2327;stroke-linecap:round;stroke-linejoin:round;}
	.st3{fill:#CD6116;stroke:#CD6116;stroke-width:0.2327;stroke-linecap:round;stroke-linejoin:round;}
	.st4{fill:#E4751F;stroke:#E4751F;stroke-width:0.2327;stroke-linecap:round;stroke-linejoin:round;}
	.st5{fill:#F6851B;stroke:#F6851B;stroke-width:0.2327;stroke-linecap:round;stroke-linejoin:round;}
	.st6{fill:#C0AD9E;stroke:#C0AD9E;stroke-width:0.2327;stroke-linecap:round;stroke-linejoin:round;}
	.st7{fill:none;stroke:#763D16;stroke-width:0.2327;stroke-linecap:round;stroke-linejoin:round;}
</style>
<path class="st0" d="M62.2,0L39.1,17.2L43.4,7L62.2,0z"/>
<path class="st1" d="M8.8,0l23,17.4L27.7,7L8.8,0z M53.9,39.9l-6.2,9.4l13.2,3.6L64.7,40L53.9,39.9z M6.3,40.1L10.1,53l13.2-3.6
	L17.1,40L6.3,40.1z"/>
<path class="st1" d="M22.6,23.9l-3.7,5.6L32,30l-0.5-14L22.6,23.9z M48.4,23.9l-9.1-8.1L39.1,30l13.1-0.6L48.4,23.9z M23.3,49.3
	l7.9-3.8l-6.8-5.3L23.3,49.3z M39.8,45.5l7.9,3.8l-1.1-9.1L39.8,45.5z"/>
<path class="st2" d="M47.7,49.3l-7.9-3.8l0.6,5.1l-0.1,2.2L47.7,49.3z M23.3,49.3l7.3,3.5v-2.2l0.6-5.1L23.3,49.3z"/>
<path class="st3" d="M23.3,49.3l1.1-9.4l-7.3,0.2L23.3,49.3z M46.6,39.9l1.1,9.4l6.2-9.2L46.6,39.9z M52.1,29.5l-13,0.5l1.2,6.7
	l1.9-4l4.7,2.1L52.1,29.5z M24.2,34.8l4.7-2.1l1.9,4L32,30l-13.1-0.6L24.2,34.8z"/>
<path class="st4" d="M18.9,29.5l5.5,10.7l-0.2-5.3L18.9,29.5z M46.9,34.8l-0.2,5.3l5.5-10.7L46.9,34.8z M32,30l-1.2,6.7l1.5,7.9
	l0.3-10.4L32,30z M39.1,30l-0.6,4.2l0.3,10.5l1.6-7.9L39.1,30z"/>
<path class="st5" d="M40.3,36.8l-1.6,7.9l1.1,0.8l6.8-5.3l0.2-5.3L40.3,36.8z M24.2,34.8l0.2,5.3l6.8,5.3l1.1-0.8l-1.5-7.9
	L24.2,34.8z"/>
<path class="st6" d="M40.4,52.8l0.1-2.2l-0.6-0.5h-8.8l-0.5,0.5v2.2l-7.3-3.5l2.6,2.1L31,55h9l5.2-3.6l2.6-2.1L40.4,52.8z"/>
<path class="st7" d="M63.2,18.3l2-9.5l-3-8.8L39.8,16.6l8.6,7.3l12.2,3.6l2.7-3.1l-1.2-0.8l1.9-1.7l-1.4-1.1l1.9-1.4L63.2,18.3z
	 M5.8,8.8l2,9.5l-1.3,0.9l1.9,1.4L7,21.8l1.9,1.7l-1.2,0.8l2.7,3.1l12.2-3.6l8.6-7.3L8.8,0L5.8,8.8z"/>
<path class="st5" d="M60.6,27.5l-12.2-3.6l3.7,5.6l-5.5,10.7l7.3-0.1h10.8L60.6,27.5z M22.6,23.9l-12.2,3.6l-4,12.6h10.8l7.2,0.1
	l-5.5-10.7L22.6,23.9z M39.1,30l0.8-13.4L43.4,7H27.7l3.5,9.6L32,30l0.3,4.2v10.4h6.4V34.2L39.1,30z"/>
</svg>
