<?xml version="1.0" encoding="utf-8"?>
<!-- Generator: Adobe Illustrator 24.3.0, SVG Export Plug-In . SVG Version: 6.00 Build 0)  -->
<svg version="1.1" id="Layer_1" xmlns="http://www.w3.org/2000/svg" xmlns:xlink="http://www.w3.org/1999/xlink" x="0px" y="0px"
	 viewBox="0 0 71 55" style="enable-background:new 0 0 71 55;" xml:space="preserve">
<style type="text/css">
	.st0{fill:#FFFFFF;}
</style>
<g transform="translate(1.4065934065934016 1.4065934065934016) scale(2.81 2.81)">
	<path class="st0" d="M24.2,3.2C23.9,2.1,23.1,1.3,22,1c-2-0.5-9.9-0.5-9.9-0.5S4.2,0.4,2.3,1C1.2,1.3,0.3,2.1,0,3.2
		c-0.5,2-0.5,6.1-0.5,6.1s0,4.1,0.5,6.1c0.3,1.1,1.1,1.9,2.2,2.2c2,0.5,9.9,0.5,9.9,0.5s7.9,0,9.9-0.5c1.1-0.3,1.9-1.1,2.2-2.2
		c0.5-2,0.5-6.1,0.5-6.1S24.8,5.2,24.2,3.2z M9.6,13.1V5.5l6.6,3.8L9.6,13.1z"/>
</g>
</svg>
